
<svg width="32" height="32" viewBox="0 0 32 32" fill="none" xmlns="http://www.w3.org/2000/svg">
<path d="M12.3921 27.4167V23.4298C12.3921 22.4195 13.1903 21.5987 14.1791 21.5923H17.8096C18.8028 21.5923 19.6079 22.415 19.6079 23.4298V27.4051C19.6079 28.2814 20.2998 28.9936 21.1574 29H23.6343C24.7911 29.003 25.9016 28.5356 26.7206 27.7009C27.5397 26.8662 28 25.7327 28 24.5507V13.2256C28 12.2708 27.5858 11.3651 26.869 10.7525L18.4543 3.87655C16.9834 2.67386 14.8826 2.71271 13.4552 3.969L5.22149 10.7525C4.47083 11.3471 4.02217 12.2554 4 13.2256V24.5392C4 27.0028 5.95459 29 8.36569 29H10.7861C11.199 29.003 11.596 28.8376 11.889 28.5403C12.1821 28.2431 12.3469 27.8386 12.3468 27.4167H12.3921Z" fill="#3C81FC"/>
</svg>
