<svg width="146" height="41" viewBox="0 0 146 41" fill="none" xmlns="http://www.w3.org/2000/svg">
<rect width="41" height="41" rx="4" fill="#0A1122"/>
<path d="M14.5404 18.0159L9.67711 13.4583C8.76194 12.6006 8.744 11.1538 9.63762 10.2738C10.4868 9.43745 11.8464 9.42593 12.7096 10.2477L18.8971 16.1383C19.247 16.4715 19.4451 16.9335 19.4451 17.4166V22.4666C19.4451 23.596 18.9821 24.6761 18.1641 25.4548L12.5031 30.8442C11.6904 31.6179 10.4137 31.6179 9.60098 30.8442C8.7298 30.0149 8.7298 28.6253 9.60098 27.7959L13.9971 23.6108C14.6222 23.0156 14.976 22.1902 14.976 21.327V19.0212C14.976 18.6403 14.8183 18.2763 14.5404 18.0159Z" fill="url(#paint0_linear_214_22457)"/>
<path d="M14.5404 18.0159L9.67711 13.4583C8.76194 12.6006 8.744 11.1538 9.63762 10.2738C10.4868 9.43745 11.8464 9.42593 12.7096 10.2477L18.8971 16.1383C19.247 16.4715 19.4451 16.9335 19.4451 17.4166V22.4666C19.4451 23.596 18.9821 24.6761 18.1641 25.4548L12.5031 30.8442C11.6904 31.6179 10.4137 31.6179 9.60098 30.8442C8.7298 30.0149 8.7298 28.6253 9.60098 27.7959L13.9971 23.6108C14.6222 23.0156 14.976 22.1902 14.976 21.327V19.0212C14.976 18.6403 14.8183 18.2763 14.5404 18.0159Z" fill="url(#paint1_linear_214_22457)"/>
<path d="M26.2033 22.9832L31.0665 27.5408C31.9817 28.3984 31.9997 29.8452 31.106 30.7253C30.2569 31.5616 28.8972 31.5731 28.034 30.7513L21.8466 24.8607C21.4966 24.5276 21.2986 24.0655 21.2986 23.5824V18.5324C21.2986 17.403 21.7616 16.3229 22.5796 15.5442L28.2406 10.1548C29.0533 9.38111 30.33 9.38111 31.1427 10.1548C32.0138 10.9842 32.0139 12.3737 31.1427 13.2031L26.7466 17.3883C26.1214 17.9834 25.7676 18.8088 25.7676 19.672V21.9778C25.7676 22.3588 25.9253 22.7227 26.2033 22.9832Z" fill="url(#paint2_linear_214_22457)"/>
<path d="M26.2033 22.9832L31.0665 27.5408C31.9817 28.3984 31.9997 29.8452 31.106 30.7253C30.2569 31.5616 28.8972 31.5731 28.034 30.7513L21.8466 24.8607C21.4966 24.5276 21.2986 24.0655 21.2986 23.5824V18.5324C21.2986 17.403 21.7616 16.3229 22.5796 15.5442L28.2406 10.1548C29.0533 9.38111 30.33 9.38111 31.1427 10.1548C32.0138 10.9842 32.0139 12.3737 31.1427 13.2031L26.7466 17.3883C26.1214 17.9834 25.7676 18.8088 25.7676 19.672V21.9778C25.7676 22.3588 25.9253 22.7227 26.2033 22.9832Z" fill="url(#paint3_linear_214_22457)"/>
<path d="M50 28.7428L57.097 19.5763V21.1898L50.1925 12.2572H54.595L59.2141 18.5475H58.0112L62.6543 12.2572H67.0568L60.1283 21.1898V19.5763L67.2734 28.7428H62.8468L58.0112 22.2187H59.2381L54.3785 28.7428H50Z" fill="#142243"/>
<path d="M68.5638 28.7428V12.2572H72.3168V28.7428H68.5638Z" fill="#142243"/>
<path d="M79.6743 28.7428V15.227H74.2854V12.2572H88.8162V15.227H83.4273V28.7428H79.6743Z" fill="#142243"/>
<path d="M97.6491 28.7428V12.2572H105.564C107.473 12.2572 108.916 12.7093 109.894 13.6135C110.889 14.5021 111.386 15.7258 111.386 17.2847C111.386 18.8281 110.889 20.0596 109.894 20.9794C108.916 21.8835 107.473 22.3356 105.564 22.3356H101.402V28.7428H97.6491ZM101.402 19.5062H105.083C105.981 19.5062 106.647 19.3113 107.08 18.9216C107.529 18.5319 107.753 17.9862 107.753 17.2847C107.753 16.5832 107.529 16.0454 107.08 15.6713C106.647 15.2815 105.981 15.0867 105.083 15.0867H101.402V19.5062Z" fill="#142243"/>
<path d="M113.308 20.4883C113.308 18.7735 113.636 17.2847 114.294 16.022C114.968 14.7437 115.93 13.7538 117.181 13.0523C118.432 12.3508 119.915 12 121.632 12C123.348 12 124.831 12.3508 126.082 13.0523C127.333 13.7538 128.295 14.7437 128.969 16.022C129.659 17.2847 130.004 18.7657 130.004 20.4649C130.004 22.1953 129.659 23.6997 128.969 24.978C128.295 26.2407 127.333 27.2306 126.082 27.9477C124.831 28.6492 123.348 29 121.632 29C119.915 29 118.432 28.6492 117.181 27.9477C115.946 27.2306 114.992 26.2329 114.318 24.9546C113.644 23.6763 113.308 22.1875 113.308 20.4883ZM117.229 20.4883C117.229 22.1875 117.59 23.5204 118.312 24.4869C119.049 25.4379 120.156 25.9133 121.632 25.9133C123.075 25.9133 124.174 25.4379 124.927 24.4869C125.681 23.5204 126.058 22.1875 126.058 20.4883C126.058 18.7735 125.681 17.4484 124.927 16.5131C124.19 15.5621 123.091 15.0867 121.632 15.0867C120.156 15.0867 119.049 15.5621 118.312 16.5131C117.59 17.4484 117.229 18.7735 117.229 20.4883Z" fill="#142243"/>
<path d="M139.071 29C137.708 29 136.433 28.8363 135.246 28.5089C134.059 28.1816 133.049 27.7295 132.215 27.1527L133.322 24.2999C133.867 24.6584 134.444 24.9624 135.054 25.2118C135.663 25.4613 136.305 25.6561 136.978 25.7964C137.652 25.9211 138.358 25.9835 139.095 25.9835C140.25 25.9835 141.068 25.812 141.549 25.4691C142.047 25.1261 142.295 24.6896 142.295 24.1596C142.295 23.6763 142.127 23.3099 141.79 23.0605C141.469 22.7955 140.876 22.5695 140.01 22.3824L137.171 21.8212C135.615 21.5094 134.452 20.9794 133.683 20.2311C132.913 19.4828 132.528 18.4851 132.528 17.238C132.528 16.1779 132.816 15.2581 133.394 14.4787C133.971 13.6992 134.781 13.0912 135.824 12.6547C136.882 12.2182 138.117 12 139.529 12C140.731 12 141.854 12.1637 142.897 12.4911C143.939 12.8184 144.797 13.2861 145.471 13.8941L144.364 16.5598C143.707 16.0454 142.969 15.6635 142.151 15.414C141.349 15.149 140.451 15.0165 139.456 15.0165C138.414 15.0165 137.612 15.1958 137.051 15.5543C136.505 15.9129 136.233 16.4039 136.233 17.0275C136.233 17.4952 136.401 17.8771 136.738 18.1733C137.075 18.4539 137.668 18.68 138.518 18.8514L141.309 19.3893C142.897 19.7011 144.075 20.2233 144.845 20.956C145.615 21.6887 146 22.663 146 23.879C146 24.9078 145.711 25.8042 145.134 26.5681C144.573 27.332 143.771 27.9321 142.728 28.3686C141.702 28.7895 140.483 29 139.071 29Z" fill="#142243"/>
<defs>
<linearGradient id="paint0_linear_214_22457" x1="10.943" y1="10.33" x2="17.9871" y2="44.3034" gradientUnits="userSpaceOnUse">
<stop offset="0.130208" stop-color="#3C81FC"/>
<stop offset="1" stop-color="#002362"/>
</linearGradient>
<linearGradient id="paint1_linear_214_22457" x1="10.943" y1="10.33" x2="17.9871" y2="44.3034" gradientUnits="userSpaceOnUse">
<stop offset="0.130208" stop-color="#3C81FC"/>
<stop offset="1" stop-color="#002362"/>
</linearGradient>
<linearGradient id="paint2_linear_214_22457" x1="29.8006" y1="30.669" x2="22.7565" y2="-3.30437" gradientUnits="userSpaceOnUse">
<stop offset="0.130208" stop-color="#3C81FC"/>
<stop offset="1" stop-color="#002362"/>
</linearGradient>
<linearGradient id="paint3_linear_214_22457" x1="29.8006" y1="30.669" x2="22.7565" y2="-3.30437" gradientUnits="userSpaceOnUse">
<stop offset="0.130208" stop-color="#3C81FC"/>
<stop offset="1" stop-color="#002362"/>
</linearGradient>
</defs>
</svg>