<svg width="296" height="229" viewBox="0 0 296 229" fill="none" xmlns="http://www.w3.org/2000/svg">
<path d="M148.17 214.106C224.792 214.106 286.907 178.301 286.907 134.133C286.907 89.9645 224.792 54.1592 148.17 54.1592C71.5481 54.1592 9.43359 89.9645 9.43359 134.133C9.43359 178.301 71.5481 214.106 148.17 214.106Z" fill="#F5F5F5"/>
<path d="M163.89 164.615L119.49 139.013L170.241 109.761L214.647 135.357L163.89 164.615Z" fill="#E0E0E0"/>
<path d="M42.9902 156.697L100.256 189.705L148.288 162.025L91.0224 129.017L42.9902 156.697Z" fill="#E0E0E0"/>
<path d="M212.606 117.149C212.518 115.66 212.317 113.876 212.076 111.804C211.173 103.939 209.941 93.1659 213.208 82.8462C215.195 76.5649 219.983 69.118 227.459 67.0517C229.122 66.5925 233.143 65.9155 234.688 69.4771C234.905 69.9917 235.035 70.5388 235.072 71.096C235.231 73.3566 234.211 75.3522 233.079 77.1713C231.776 79.2846 230.266 81.2921 228.804 83.2465C227.424 85.095 225.991 87.0024 224.741 88.9804C223.391 91.1295 222.208 93.379 221.203 95.7091L220.726 95.503C221.729 93.1495 222.911 90.8763 224.263 88.7037C225.519 86.708 226.958 84.7889 228.35 82.9345C229.8 80.9919 231.298 78.9903 232.595 76.9005C233.68 75.1344 234.659 73.2447 234.511 71.1313C234.479 70.6329 234.364 70.1433 234.169 69.6831C232.79 66.4983 229.087 67.1341 227.56 67.5521C220.283 69.5654 215.608 76.8534 213.662 82.9993C210.43 93.2189 211.657 103.927 212.553 111.745C212.789 113.823 212.995 115.619 213.084 117.12L212.606 117.149Z" fill="#3C81FC"/>
<path d="M213.136 125.708C213.097 125.714 213.057 125.714 213.018 125.708C212.905 125.686 212.798 125.638 212.707 125.567C212.616 125.497 212.543 125.406 212.493 125.302C212.39 125.01 212.39 124.693 212.493 124.401C212.576 123.837 212.576 123.264 212.493 122.7C212.493 122.382 212.44 122.046 212.44 121.746V118.09C212.911 111.523 214.839 105.143 218.083 99.4114C220.96 94.4134 224.145 91.0873 228.107 88.9327C230.243 87.7609 232.585 87.0114 235.006 86.7251C237.142 86.4895 239.291 87.056 241.032 88.3146C242.83 89.7333 243.638 92.1646 242.96 94.0896C242.482 95.4377 241.392 96.4444 240.277 97.3568C238.29 98.9757 236.12 100.424 234.027 101.825C232.287 103.002 230.489 104.18 228.809 105.475C223.667 109.437 219.354 114.367 216.114 119.986C215.583 120.899 215.082 121.84 214.622 122.782L214.433 123.153C214.249 123.49 214.088 123.838 213.95 124.195C213.92 124.272 213.891 124.431 213.849 124.613C213.819 124.949 213.713 125.273 213.537 125.561C213.426 125.658 213.283 125.711 213.136 125.708ZM235.855 87.2137C235.589 87.2137 235.324 87.2137 235.053 87.249C232.704 87.5226 230.431 88.2505 228.36 89.3919C224.492 91.4935 221.373 94.7607 218.543 99.6704C215.342 105.331 213.439 111.63 212.971 118.114V121.734C212.971 122.017 212.971 122.323 213.024 122.647C213.119 123.263 213.119 123.891 213.024 124.507C212.96 124.698 212.96 124.905 213.024 125.096C213.039 125.126 213.061 125.152 213.087 125.172C213.114 125.192 213.144 125.207 213.177 125.214C213.282 124.996 213.354 124.764 213.389 124.525C213.418 124.361 213.457 124.2 213.507 124.042C213.651 123.664 213.821 123.296 214.014 122.941L214.197 122.576C214.669 121.623 215.176 120.675 215.707 119.751C216.809 117.846 218.032 116.013 219.368 114.264C222.01 110.818 225.093 107.733 228.537 105.086C230.236 103.791 232.04 102.584 233.785 101.419C235.873 100.024 238.025 98.5813 240 96.9801C241.05 96.1265 242.081 95.1669 242.518 93.9424C243.107 92.2176 242.382 90.0336 240.749 88.7443C239.339 87.6947 237.613 87.1549 235.855 87.2137Z" fill="#3C81FC"/>
<path d="M212.694 120.682H212.629C212.596 120.674 212.564 120.66 212.537 120.64C212.509 120.62 212.486 120.595 212.468 120.566C212.451 120.537 212.439 120.504 212.434 120.471C212.429 120.437 212.431 120.403 212.44 120.37C217.305 101.002 230.754 92.3599 237.936 90.3054C238.002 90.2871 238.072 90.2954 238.132 90.3285C238.191 90.3615 238.236 90.4167 238.255 90.482C238.273 90.5483 238.265 90.6192 238.232 90.6796C238.199 90.7401 238.144 90.7853 238.078 90.8057C231.002 92.8249 217.753 101.355 212.947 120.493C212.931 120.548 212.897 120.595 212.852 120.629C212.806 120.663 212.751 120.682 212.694 120.682Z" fill="#3C81FC"/>
<path d="M212.664 104.786C212.595 104.78 212.531 104.747 212.485 104.694C212.44 104.641 212.418 104.573 212.423 104.504C213.973 83.5875 227.677 72.1257 229.233 70.8954C229.26 70.8732 229.29 70.8567 229.323 70.8468C229.356 70.8368 229.391 70.8337 229.425 70.8375C229.459 70.8414 229.492 70.8522 229.522 70.8692C229.552 70.8862 229.578 70.9091 229.599 70.9366C229.62 70.9632 229.636 70.9938 229.646 71.0266C229.655 71.0594 229.658 71.0937 229.654 71.1276C229.65 71.1615 229.64 71.1944 229.623 71.2242C229.607 71.2541 229.584 71.2804 229.558 71.3016C228.019 72.5201 214.474 83.8465 212.947 104.545C212.94 104.614 212.906 104.677 212.854 104.722C212.801 104.766 212.733 104.79 212.664 104.786Z" fill="#3C81FC"/>
<path d="M211.033 31.8426L178.243 12.9516C177.99 12.7698 177.692 12.6583 177.382 12.6283C177.071 12.5983 176.758 12.651 176.474 12.7808L174.116 14.1407C173.856 14.321 173.65 14.5673 173.518 14.854C173.387 15.1408 173.334 15.4576 173.367 15.7714V105.376C173.415 106.249 173.669 107.098 174.107 107.855C174.545 108.612 175.156 109.255 175.89 109.732L208.674 128.6C208.928 128.782 209.224 128.895 209.535 128.926C209.846 128.957 210.159 128.905 210.443 128.776L212.802 127.41C213.058 127.229 213.262 126.983 213.391 126.698C213.521 126.412 213.572 126.097 213.539 125.786V36.1989C213.493 35.3273 213.243 34.4787 212.807 33.7219C212.372 32.965 211.764 32.3212 211.033 31.8426Z" fill="#142243"/>
<path d="M180.431 106.911L178.072 108.271V115.724C178.084 115.942 178.148 116.154 178.257 116.344C178.367 116.533 178.52 116.694 178.703 116.813L179.806 117.449C180.001 117.547 180.218 117.599 180.437 117.599C180.656 117.599 180.872 117.547 181.068 117.449L182.17 116.813C182.562 116.56 182.865 116.192 183.037 115.759L185.166 109.637L180.431 106.911Z" fill="#142243"/>
<path d="M178.072 115.724C178.084 115.943 178.148 116.155 178.257 116.344C178.367 116.533 178.52 116.694 178.703 116.813L179.806 117.449C179.882 117.495 179.968 117.523 180.056 117.532C180.145 117.54 180.234 117.528 180.318 117.497C180.401 117.466 180.476 117.416 180.538 117.352C180.599 117.287 180.645 117.21 180.673 117.125L182.789 110.997L178.072 108.271V115.724Z" fill="#283D6F"/>
<path d="M204.087 120.504L201.729 121.87V129.317C201.739 129.535 201.802 129.748 201.91 129.939C202.019 130.129 202.171 130.291 202.354 130.412L203.462 131.047C203.657 131.146 203.872 131.198 204.09 131.198C204.308 131.198 204.523 131.146 204.718 131.047L205.827 130.412C206.218 130.159 206.521 129.791 206.693 129.358L208.816 123.23L204.087 120.504Z" fill="#142243"/>
<path d="M201.729 129.317C201.739 129.536 201.802 129.749 201.91 129.939C202.019 130.129 202.171 130.291 202.354 130.412L203.462 131.048C203.538 131.094 203.624 131.122 203.713 131.13C203.801 131.139 203.891 131.127 203.974 131.096C204.057 131.064 204.133 131.015 204.194 130.95C204.256 130.886 204.302 130.809 204.329 130.724L206.457 124.596L201.74 121.87L201.729 129.317Z" fill="#283D6F"/>
<path d="M176.044 14.3817L208.828 33.2197C209.562 33.698 210.173 34.3422 210.611 35.1C211.05 35.8578 211.303 36.7081 211.351 37.5819V127.186C211.414 127.501 211.376 127.827 211.243 128.119C211.11 128.412 210.889 128.655 210.611 128.815C210.333 128.976 210.011 129.045 209.691 129.014C209.371 128.982 209.07 128.852 208.828 128.64L176.044 109.767C175.311 109.29 174.7 108.646 174.263 107.889C173.826 107.133 173.573 106.283 173.526 105.411V15.8298C173.463 15.5157 173.5 15.1897 173.633 14.8978C173.765 14.6059 173.986 14.3628 174.264 14.2029C174.542 14.0429 174.863 13.9741 175.183 14.0062C175.502 14.0383 175.803 14.1696 176.044 14.3817Z" fill="#283D6F"/>
<path d="M128.436 136.859L163.897 157.298L213.544 128.682L211.18 127.316L175.719 106.877L128.436 134.133V136.859Z" fill="#40527C"/>
<path d="M163.896 157.298V154.573L213.544 125.957V128.682L163.896 157.298Z" fill="#142243"/>
<path d="M164.121 153.33L163.762 153.088C170.053 143.581 170.012 127.157 169.499 123.036C169.458 122.759 169.428 122.589 169.422 122.524L169.853 122.453C169.853 122.583 169.9 122.736 169.923 122.918C170.383 125.832 172.984 141.662 176.062 146.466L175.696 146.701C173.261 142.928 171.179 132.743 170.136 126.868C170.201 133.538 169.228 145.659 164.121 153.33Z" fill="#FAFAFA"/>
<path d="M184.83 138.813C184.293 138.654 171.757 134.863 170.602 129.341L171.032 129.253C172.129 134.522 184.824 138.36 184.953 138.401L184.83 138.813Z" fill="#FAFAFA"/>
<path d="M172.176 136.575L171.857 135.227C171.814 134.98 171.688 134.754 171.499 134.587C171.311 134.421 171.071 134.322 170.82 134.309C170.612 134.279 170.4 134.313 170.212 134.406C170.025 134.5 169.87 134.649 169.77 134.833L169.363 134.662C169.5 134.393 169.717 134.172 169.984 134.031C170.251 133.89 170.555 133.835 170.855 133.873C171.072 133.887 171.284 133.947 171.476 134.048C171.668 134.15 171.836 134.291 171.969 134.462C172.04 133.904 172.326 133.395 172.766 133.043C172.932 132.956 173.119 132.914 173.307 132.92C173.495 132.926 173.678 132.981 173.839 133.079L173.644 133.467C173.546 133.404 173.433 133.367 173.316 133.36C173.2 133.353 173.083 133.375 172.978 133.426C172.477 133.709 172.282 134.798 172.253 135.192L172.176 136.575Z" fill="#FAFAFA"/>
<path d="M173.408 141.067L173.018 139.843C172.576 138.459 171.839 137.664 170.967 137.612C170.602 137.605 170.243 137.704 169.934 137.897C169.625 138.091 169.38 138.37 169.227 138.701L168.832 138.512C169.019 138.099 169.324 137.75 169.709 137.51C170.094 137.27 170.542 137.15 170.996 137.164C171.521 137.194 172.423 137.476 173.095 138.842C173.243 137.765 173.685 136.034 174.823 135.31C175.231 135.086 175.691 134.972 176.156 134.977C176.622 134.982 177.079 135.107 177.482 135.339L177.299 135.734C176.962 135.534 176.578 135.425 176.186 135.415C175.794 135.406 175.405 135.497 175.059 135.681C173.543 136.623 173.443 139.737 173.443 139.772L173.408 141.067Z" fill="#FAFAFA"/>
<path d="M168.083 144.058L167.693 143.858C168.566 142.18 170.482 140.973 172.145 141.056C172.498 141.06 172.845 141.143 173.162 141.299C173.478 141.455 173.755 141.679 173.973 141.956C174.133 141.109 174.463 140.303 174.944 139.587C175.424 138.871 176.044 138.259 176.768 137.788C177.544 137.274 178.44 136.967 179.37 136.898C180.299 136.829 181.231 137 182.075 137.394L181.904 137.788C181.126 137.429 180.27 137.274 179.415 137.338C178.561 137.402 177.737 137.682 177.021 138.153C176.257 138.648 175.618 139.315 175.158 140.1C174.697 140.885 174.427 141.767 174.368 142.675V143.787L173.955 142.751C173.819 142.383 173.573 142.065 173.25 141.84C172.928 141.615 172.544 141.493 172.151 141.491C170.624 141.415 168.884 142.521 168.083 144.058Z" fill="#FAFAFA"/>
<path d="M165.69 150.558L165.307 150.346C165.837 149.38 168.662 144.529 172.005 143.652C172.477 143.517 172.972 143.484 173.458 143.554C173.944 143.624 174.409 143.796 174.823 144.058L174.599 144.429C174.234 144.199 173.824 144.048 173.396 143.986C172.969 143.924 172.533 143.953 172.117 144.07C169.664 144.718 167.129 147.967 165.69 150.558Z" fill="#FAFAFA"/>
<path d="M208.815 98.699V101.425L163.897 127.315L128.436 106.876V104.15L173.354 78.2598L208.815 98.699Z" fill="#142243"/>
<path d="M208.815 98.699L163.897 124.59L128.436 104.15L173.354 78.2598L208.815 98.699Z" fill="#40527C"/>
<path d="M208.815 68.7235V71.4432L163.897 97.3397L128.436 76.8945V74.1748L173.354 48.2783L208.815 68.7235Z" fill="#142243"/>
<path d="M208.815 68.7235L163.897 94.614L128.436 74.1748L173.354 48.2783L208.815 68.7235Z" fill="#40527C"/>
<path d="M163.742 59.0629L130.958 40.1954C130.705 40.0127 130.408 39.9001 130.098 39.8691C129.787 39.8381 129.474 39.8897 129.189 40.0188C128.765 40.2601 127.255 41.1373 126.831 41.3787C126.573 41.5596 126.368 41.8062 126.237 42.093C126.106 42.3797 126.055 42.6961 126.088 43.0093V132.59C126.136 133.463 126.39 134.313 126.828 135.069C127.267 135.826 127.878 136.469 128.612 136.946L161.396 155.82C161.649 156.002 161.946 156.115 162.256 156.146C162.567 156.177 162.88 156.125 163.165 155.996C163.589 155.749 165.11 154.878 165.523 154.625C165.783 154.446 165.989 154.201 166.122 153.915C166.255 153.629 166.309 153.313 166.278 153V63.4251C166.229 62.55 165.974 61.6987 165.534 60.9406C165.093 60.1826 164.479 59.5392 163.742 59.0629Z" fill="#142243"/>
<path opacity="0.2" d="M163.897 72.8142L166.267 71.4484V63.2656L163.891 64.6314L163.897 72.8142Z" fill="#142243"/>
<path opacity="0.2" d="M211.186 45.5583L213.556 44.1984V36.0156L211.18 37.3814L211.186 45.5583Z" fill="#142243"/>
<path d="M133.165 134.132L130.807 135.492V142.945C130.819 143.163 130.882 143.376 130.992 143.565C131.101 143.754 131.254 143.915 131.438 144.034L132.54 144.67C132.736 144.769 132.952 144.82 133.171 144.82C133.39 144.82 133.606 144.769 133.802 144.67L134.905 144.034C135.295 143.782 135.598 143.416 135.771 142.986L137.9 136.858L133.165 134.132Z" fill="#142243"/>
<path d="M130.799 142.945C130.811 143.164 130.874 143.376 130.984 143.565C131.093 143.755 131.246 143.915 131.43 144.035L132.532 144.67C132.609 144.716 132.694 144.745 132.783 144.753C132.872 144.761 132.961 144.749 133.044 144.718C133.128 144.687 133.203 144.637 133.264 144.573C133.326 144.509 133.372 144.431 133.399 144.347L135.528 138.218L130.811 135.493L130.799 142.945Z" fill="#283D6F"/>
<path d="M156.804 147.761L154.445 149.121V156.573C154.456 156.791 154.518 157.004 154.627 157.193C154.736 157.382 154.888 157.543 155.07 157.662L156.179 158.298C156.373 158.397 156.589 158.448 156.807 158.448C157.025 158.448 157.24 158.397 157.435 158.298L158.543 157.662C158.932 157.409 159.234 157.044 159.41 156.615L161.533 150.486L156.804 147.761Z" fill="#142243"/>
<path d="M154.445 156.544C154.456 156.761 154.518 156.974 154.627 157.163C154.736 157.352 154.888 157.513 155.07 157.633L156.179 158.268C156.255 158.315 156.341 158.343 156.429 158.351C156.518 158.359 156.607 158.347 156.691 158.316C156.774 158.285 156.849 158.235 156.911 158.171C156.972 158.107 157.018 158.029 157.046 157.945L159.168 151.816L154.451 149.091L154.445 156.544Z" fill="#283D6F"/>
<path d="M128.589 41.5614L161.379 60.4288C162.112 60.9074 162.722 61.5518 163.159 62.3097C163.597 63.0675 163.849 63.9176 163.896 64.791V157.298C163.896 157.298 162.074 156.22 161.379 155.82L128.595 136.947C127.861 136.47 127.25 135.827 126.811 135.07C126.373 134.313 126.119 133.463 126.071 132.59V43.0095C126.008 42.6954 126.045 42.3694 126.178 42.0775C126.31 41.7856 126.531 41.5425 126.809 41.3826C127.087 41.2226 127.408 41.1538 127.728 41.1859C128.047 41.218 128.348 41.3493 128.589 41.5614Z" fill="#283D6F"/>
<path opacity="0.2" d="M161.379 60.4288L128.589 41.5614C128.348 41.3493 128.047 41.218 127.728 41.1859C127.408 41.1538 127.087 41.2226 126.809 41.3826C126.531 41.5425 126.31 41.7856 126.178 42.0775C126.045 42.3694 126.008 42.6954 126.071 43.0095V51.0098L163.896 72.7913V64.791C163.849 63.9176 163.597 63.0675 163.159 62.3097C162.722 61.5518 162.112 60.9074 161.379 60.4288Z" fill="#142243"/>
<path d="M206.452 68.9407C206.394 68.9392 206.34 68.9158 206.299 68.8753C206.258 68.8347 206.235 68.7802 206.233 68.7229V41.8433L180.555 56.643C180.531 56.6586 180.504 56.669 180.475 56.6736C180.447 56.6781 180.418 56.6768 180.39 56.6696C180.363 56.6624 180.337 56.6495 180.314 56.6317C180.292 56.614 180.273 56.5918 180.26 56.5665C180.245 56.5418 180.235 56.5144 180.231 56.4859C180.227 56.4573 180.228 56.4283 180.235 56.4004C180.242 56.3724 180.255 56.3462 180.272 56.3232C180.29 56.3002 180.311 56.2808 180.336 56.2662L206.375 41.2782C206.408 41.2579 206.445 41.2471 206.484 41.2471C206.523 41.2471 206.56 41.2579 206.593 41.2782C206.626 41.2977 206.653 41.3253 206.671 41.3583C206.69 41.3914 206.7 41.4287 206.699 41.4666V68.7229C206.7 68.7541 206.693 68.7851 206.68 68.8136C206.668 68.8422 206.649 68.8677 206.625 68.8883C206.602 68.909 206.574 68.9244 206.544 68.9334C206.514 68.9424 206.483 68.9449 206.452 68.9407Z" fill="#FAFAFA"/>
<path d="M201.723 62.1246H201.658C201.602 62.1119 201.553 62.0776 201.522 62.0291C201.491 61.9805 201.481 61.9217 201.493 61.8656L205.892 42.845L197.165 57.9331C197.151 57.9583 197.133 57.9804 197.111 57.9983C197.088 58.0162 197.063 58.0293 197.035 58.037C197.008 58.0447 196.979 58.0468 196.95 58.0431C196.922 58.0394 196.895 58.03 196.87 58.0155C196.845 58.0015 196.822 57.9825 196.804 57.9597C196.787 57.9369 196.773 57.9107 196.766 57.8827C196.758 57.8548 196.756 57.8256 196.76 57.7968C196.763 57.7681 196.773 57.7403 196.788 57.7153L206.222 41.3615C206.249 41.3166 206.291 41.2826 206.34 41.2653C206.39 41.2481 206.444 41.2488 206.493 41.2673C206.541 41.287 206.581 41.3234 206.605 41.3699C206.629 41.4163 206.635 41.4698 206.623 41.5205L201.906 61.9656C201.895 62.0076 201.872 62.0453 201.839 62.0737C201.807 62.1021 201.766 62.1199 201.723 62.1246Z" fill="#FAFAFA"/>
<path d="M192.271 55.3368C192.241 55.3369 192.211 55.3307 192.184 55.3185C192.156 55.3064 192.132 55.2885 192.112 55.2662C192.071 55.2254 192.049 55.1704 192.049 55.1131C192.049 55.0558 192.071 55.0008 192.112 54.96L206.299 41.3319C206.339 41.2916 206.394 41.269 206.452 41.269C206.509 41.269 206.564 41.2916 206.605 41.3319C206.646 41.3736 206.669 41.4296 206.669 41.4879C206.669 41.5462 206.646 41.6021 206.605 41.6439L192.418 55.2662C192.4 55.2871 192.377 55.3041 192.352 55.3162C192.326 55.3283 192.299 55.3353 192.271 55.3368Z" fill="#FAFAFA"/>
<path d="M206.451 64.5903C206.394 64.5889 206.339 64.5654 206.299 64.5249C206.258 64.4844 206.235 64.4298 206.233 64.3725C206.233 60.8051 202.247 60.5637 202.076 60.5578C202.044 60.5555 202.013 60.5464 201.984 60.5312C201.956 60.516 201.931 60.495 201.911 60.4695C201.893 60.4445 201.88 60.4157 201.874 60.3852C201.868 60.3546 201.868 60.3231 201.876 60.2929C202.021 59.5641 201.972 58.8099 201.733 58.1062C201.494 57.4025 201.073 56.774 200.514 56.2839C200.309 56.0802 200.063 55.9224 199.793 55.8209C199.522 55.7194 199.233 55.6766 198.945 55.6953C198.791 55.7213 198.645 55.7799 198.516 55.8673C198.387 55.9546 198.278 56.0686 198.196 56.2015C198.172 56.2445 198.133 56.2778 198.087 56.296C198.041 56.3142 197.99 56.3162 197.943 56.3016C197.896 56.2871 197.855 56.2571 197.827 56.2165C197.799 56.1758 197.786 56.127 197.789 56.0779C197.789 55.9425 198.031 52.7695 195.236 52.4575C195.2 52.4531 195.166 52.4401 195.136 52.4196C195.107 52.3991 195.082 52.3717 195.065 52.3397C195.049 52.3088 195.041 52.2745 195.041 52.2397C195.041 52.2048 195.049 52.1705 195.065 52.1396C195.065 52.1396 196.304 49.826 195.826 48.6899C195.771 48.5564 195.685 48.4379 195.575 48.3438C195.466 48.2497 195.335 48.1827 195.195 48.1483C195.167 48.1409 195.141 48.1279 195.118 48.11C195.096 48.0922 195.077 48.0699 195.063 48.0446C195.049 48.0192 195.041 47.9913 195.038 47.9626C195.035 47.9339 195.039 47.9049 195.048 47.8775C195.065 47.8229 195.103 47.7772 195.154 47.7498C195.204 47.7224 195.263 47.7154 195.319 47.7303C195.522 47.7825 195.71 47.8816 195.868 48.0196C196.025 48.1577 196.149 48.3308 196.227 48.525C196.681 49.6023 195.914 51.3861 195.584 52.0572C197.754 52.4751 198.155 54.5179 198.214 55.5304C198.408 55.393 198.629 55.2986 198.863 55.2537C199.217 55.2195 199.575 55.2657 199.909 55.3891C200.242 55.5125 200.544 55.7097 200.791 55.9661C201.377 56.4819 201.825 57.1349 202.096 57.8665C202.366 58.5981 202.451 59.3853 202.342 60.1575C203.297 60.2811 206.669 60.9464 206.664 64.3843C206.661 64.439 206.637 64.4906 206.598 64.5288C206.558 64.567 206.506 64.5889 206.451 64.5903Z" fill="#FAFAFA"/>
<path d="M206.452 58.716C206.397 58.7162 206.344 58.6957 206.304 58.6586C206.263 58.6215 206.239 58.5705 206.234 58.5159C206.14 57.2679 205.414 55.6549 204.501 55.2546C204.319 55.1738 204.119 55.1475 203.923 55.1788C203.727 55.2102 203.545 55.2979 203.398 55.4312C203.362 55.4542 203.32 55.4665 203.277 55.4665C203.234 55.4665 203.192 55.4542 203.156 55.4312C203.119 55.4106 203.088 55.3796 203.068 55.342C203.048 55.3043 203.04 55.2616 203.044 55.2192C203.044 55.2192 203.239 53.0116 202.242 52.0992C202.026 51.919 201.77 51.7929 201.495 51.7314C201.22 51.67 200.935 51.675 200.662 51.746C200.624 51.7539 200.585 51.7516 200.549 51.7391C200.513 51.7267 200.48 51.7046 200.456 51.6753C200.43 51.6457 200.413 51.6101 200.406 51.5719C200.399 51.5337 200.402 51.4943 200.414 51.4575C200.615 50.91 201.004 49.3736 200.479 48.8261C200.232 48.5729 199.778 48.5494 199.123 48.7613C199.078 48.7761 199.03 48.776 198.985 48.7612C198.941 48.7463 198.902 48.7175 198.875 48.6789C198.848 48.6411 198.834 48.5958 198.834 48.5494C198.834 48.503 198.848 48.4577 198.875 48.4199C199.241 47.9607 200.143 46.6185 199.919 45.9768C199.882 45.8882 199.822 45.811 199.746 45.753C199.669 45.6951 199.578 45.6586 199.483 45.6471C199.455 45.6403 199.428 45.6279 199.405 45.6109C199.382 45.5938 199.363 45.5724 199.348 45.5478C199.333 45.5231 199.323 45.4958 199.319 45.4674C199.315 45.439 199.316 45.4101 199.323 45.3822C199.329 45.3542 199.34 45.3275 199.356 45.3041C199.373 45.2806 199.394 45.2607 199.418 45.2458C199.443 45.2308 199.47 45.2211 199.498 45.2172C199.527 45.2134 199.555 45.2154 199.583 45.2233C199.748 45.2474 199.905 45.3144 200.036 45.4177C200.168 45.521 200.27 45.657 200.332 45.812C200.574 46.5125 199.984 47.5781 199.571 48.1667C199.784 48.1163 200.005 48.1183 200.217 48.1727C200.429 48.227 200.624 48.3321 200.786 48.4787C201.434 49.1499 201.122 50.5686 200.927 51.2338C201.215 51.1995 201.506 51.2263 201.783 51.3126C202.059 51.3988 202.314 51.5425 202.531 51.7342C203.41 52.5348 203.504 54.0889 203.492 54.8013C203.677 54.7147 203.878 54.6698 204.082 54.6698C204.286 54.6698 204.487 54.7147 204.672 54.8013C205.786 55.2899 206.558 57.0265 206.67 58.4335C206.673 58.4618 206.67 58.4903 206.661 58.5173C206.652 58.5443 206.638 58.5693 206.619 58.5907C206.6 58.6121 206.577 58.6296 206.552 58.642C206.526 58.6544 206.498 58.6616 206.47 58.6631L206.452 58.716Z" fill="#FAFAFA"/>
<path d="M219.152 31.9304C219.124 31.6178 219.013 31.3183 218.831 31.0628C218.648 30.8072 218.401 30.6048 218.114 30.4763L182.966 10.2137C182.184 9.81895 181.321 9.61328 180.445 9.61328C179.569 9.61328 178.706 9.81895 177.924 10.2137L123.866 41.3788C123.579 41.5073 123.332 41.7097 123.149 41.9653C122.967 42.2209 122.856 42.5203 122.828 42.8329V45.5585C122.856 45.8711 122.967 46.1706 123.149 46.4261C123.332 46.6817 123.579 46.8841 123.866 47.0126L159.014 67.2694C159.795 67.6668 160.659 67.874 161.535 67.874C162.411 67.874 163.275 67.6668 164.056 67.2694L218.114 36.1101C218.401 35.9816 218.648 35.7792 218.831 35.5236C219.013 35.2681 219.124 34.9686 219.152 34.656V31.9304Z" fill="#283D6F"/>
<path d="M159.014 64.5438L123.866 44.287C122.474 43.4805 122.474 42.1795 123.866 41.3788L177.924 10.2137C178.706 9.81895 179.569 9.61328 180.445 9.61328C181.321 9.61328 182.184 9.81895 182.966 10.2137L218.114 30.4763C219.512 31.2828 219.512 32.5779 218.114 33.3845L164.056 64.5438C163.275 64.9412 162.411 65.1484 161.535 65.1484C160.659 65.1484 159.795 64.9412 159.014 64.5438Z" fill="#40527C"/>
<path opacity="0.1" d="M211.181 40.1011L194.635 60.5462L166.268 76.9L166.262 65.9975L211.181 40.1011Z" fill="#142243"/>
<path opacity="0.1" d="M208.816 71.4429L194.635 90.5223L166.268 106.882V95.9735L208.816 71.4429Z" fill="#142243"/>
<path opacity="0.1" d="M208.816 101.425L194.635 120.504L166.268 136.864V125.955L208.816 101.425Z" fill="#142243"/>
<path d="M143.743 160.971L100.251 186.043L51.2754 157.745L94.7673 132.678L143.743 160.971Z" fill="#3C81FC"/>
<path opacity="0.5" d="M143.743 160.971L100.251 186.043L51.2754 157.745L94.7673 132.678L143.743 160.971Z" fill="#142243"/>
<path d="M94.7673 98.6938V132.679L51.2754 157.745V123.766L94.7673 98.6938Z" fill="#3C81FC"/>
<path opacity="0.23" d="M94.7673 98.6938V132.679L51.2754 157.745V123.766L94.7673 98.6938Z" fill="#142243"/>
<path d="M100.251 152.059V186.044L51.2754 157.745V123.766L100.251 152.059Z" fill="#3C81FC"/>
<path opacity="0.38" d="M100.251 152.059V186.044L51.2754 157.745V123.766L100.251 152.059Z" fill="#142243"/>
<path d="M143.743 126.986V160.971L94.7676 132.679V98.6938L143.743 126.986Z" fill="#3C81FC"/>
<path opacity="0.4" d="M143.743 126.986V160.971L94.7676 132.679V98.6938L143.743 126.986Z" fill="#142243"/>
<path d="M143.742 160.97V126.985L100.25 152.058V186.043L143.742 160.97Z" fill="#3C81FC"/>
<path opacity="0.23" d="M143.742 160.97V126.985L100.25 152.058V186.043L143.742 160.97Z" fill="#142243"/>
<path d="M94.7676 98.6934L94.8265 79.8789L143.684 108.207L143.743 126.986L94.7676 98.6934Z" fill="#3C81FC"/>
<path opacity="0.2" d="M94.7676 98.6934L94.8265 79.8789L143.684 108.207L143.743 126.986L94.7676 98.6934Z" fill="#142243"/>
<path d="M100.25 152.058L104.33 135.598L147.427 110.755L143.742 126.986L100.25 152.058Z" fill="#3C81FC"/>
<path opacity="0.3" d="M100.25 152.058L104.33 135.598L147.427 110.755L143.742 126.986L100.25 152.058Z" fill="#142243"/>
<path d="M51.2748 123.766L46.0859 106.694L89.5779 81.6279L94.7667 98.694L51.2748 123.766Z" fill="#3C81FC"/>
<path opacity="0.1" d="M51.2748 123.766L46.0859 106.694L89.5779 81.6279L94.7667 98.694L51.2748 123.766Z" fill="#142243"/>
<path d="M51.2752 123.766L41.0391 109.655L90.0206 137.947L100.251 152.058L51.2752 123.766Z" fill="#3C81FC"/>
<path opacity="0.45" d="M51.2752 123.766L41.0391 109.655L90.0206 137.947L100.251 152.058L51.2752 123.766Z" fill="#142243"/>
<g opacity="0.7">
<path d="M113.056 175.935C112.985 175.935 112.917 175.908 112.867 175.858C112.816 175.808 112.787 175.741 112.785 175.67V169.689C112.787 169.618 112.816 169.55 112.866 169.499C112.917 169.449 112.985 169.42 113.056 169.418C113.127 169.42 113.195 169.449 113.244 169.5C113.294 169.55 113.322 169.618 113.322 169.689V175.67C113.322 175.741 113.294 175.808 113.244 175.858C113.194 175.907 113.127 175.935 113.056 175.935Z" fill="white"/>
<path d="M112.273 171.761C112.238 171.767 112.202 171.767 112.167 171.761C112.103 171.732 112.052 171.679 112.026 171.613C111.999 171.547 111.999 171.474 112.025 171.408L112.981 169.212L114.042 170.437C114.08 170.492 114.096 170.559 114.088 170.625C114.08 170.691 114.047 170.752 113.997 170.795C113.946 170.839 113.882 170.863 113.815 170.862C113.748 170.861 113.684 170.835 113.635 170.79L113.134 170.201L112.544 171.614C112.519 171.663 112.479 171.703 112.431 171.729C112.383 171.755 112.328 171.767 112.273 171.761Z" fill="white"/>
<path d="M115.529 174.528C115.458 174.527 115.391 174.498 115.341 174.447C115.291 174.396 115.264 174.328 115.264 174.258V168.282C115.264 168.212 115.292 168.145 115.341 168.095C115.391 168.045 115.459 168.018 115.529 168.018C115.599 168.018 115.667 168.045 115.717 168.095C115.766 168.145 115.794 168.212 115.794 168.282V174.252C115.795 174.287 115.789 174.323 115.776 174.356C115.763 174.389 115.744 174.419 115.719 174.445C115.694 174.471 115.665 174.491 115.632 174.506C115.6 174.52 115.565 174.528 115.529 174.528Z" fill="white"/>
<path d="M114.744 170.355C114.709 170.36 114.673 170.36 114.638 170.355C114.606 170.341 114.577 170.32 114.552 170.295C114.528 170.27 114.509 170.24 114.496 170.207C114.483 170.174 114.478 170.139 114.479 170.103C114.48 170.068 114.488 170.034 114.503 170.002L115.452 167.776L116.513 168.995C116.562 169.045 116.59 169.113 116.59 169.183C116.59 169.254 116.562 169.321 116.513 169.372C116.489 169.397 116.459 169.416 116.427 169.43C116.394 169.443 116.36 169.45 116.325 169.45C116.289 169.45 116.255 169.443 116.222 169.43C116.19 169.416 116.161 169.397 116.136 169.372L115.635 168.783L115.045 170.196C115.021 170.253 114.977 170.299 114.923 170.328C114.868 170.357 114.805 170.367 114.744 170.355Z" fill="white"/>
</g>
<g opacity="0.7">
<path d="M105.929 179.991C105.828 179.993 105.729 179.968 105.64 179.921C105.534 179.852 105.447 179.757 105.39 179.644C105.333 179.531 105.308 179.405 105.316 179.279V178.543C105.318 178.472 105.347 178.405 105.398 178.355C105.448 178.306 105.516 178.278 105.587 178.278C105.658 178.278 105.725 178.306 105.775 178.356C105.825 178.405 105.853 178.473 105.853 178.543V179.279C105.853 179.385 105.853 179.444 105.906 179.455C105.959 179.467 105.988 179.455 106.077 179.408C106.243 179.255 106.373 179.068 106.46 178.86C106.546 178.652 106.587 178.427 106.578 178.202V175.14C106.578 175.07 106.606 175.003 106.656 174.953C106.705 174.903 106.773 174.875 106.843 174.875C106.914 174.875 106.981 174.903 107.031 174.953C107.081 175.003 107.109 175.07 107.109 175.14V178.202C107.122 178.519 107.06 178.836 106.928 179.125C106.795 179.415 106.597 179.669 106.348 179.868C106.222 179.945 106.077 179.988 105.929 179.991Z" fill="white"/>
<path d="M103.117 177.525V177.066C103.187 175.887 103.532 174.74 104.125 173.718C104.718 172.696 105.542 171.826 106.531 171.179C107.498 170.625 108.418 170.543 109.126 170.955C109.503 171.213 109.804 171.568 109.997 171.983C110.19 172.397 110.268 172.855 110.222 173.31V173.463L103.117 177.525ZM108.135 171.202C107.663 171.224 107.204 171.366 106.802 171.614C105.955 172.171 105.237 172.904 104.698 173.762C104.158 174.62 103.81 175.584 103.677 176.589L109.674 173.127C109.7 172.786 109.637 172.445 109.491 172.135C109.345 171.826 109.122 171.559 108.843 171.361C108.625 171.247 108.381 171.193 108.135 171.202Z" fill="white"/>
</g>
<path opacity="0.7" d="M41.0391 109.655L90.0206 137.947L100.251 152.058L89.4781 138.448L41.0391 109.655Z" fill="white"/>
<path opacity="0.7" d="M143.742 126.985L100.25 152.058V186.043L101.064 152.74L143.742 126.985Z" fill="white"/>
<path d="M79.9208 113.393C84.408 112.745 88.506 109.86 91.124 106.234C92.3449 104.54 93.2442 102.636 93.7774 100.618C94.3436 98.7308 94.4367 96.7335 94.0486 94.8018C93.2408 91.5699 90.2454 89.6567 87.079 89.2564C85.4723 89.0453 83.8385 89.2044 82.3029 89.7215C80.7107 90.267 79.3293 91.2962 78.3523 92.6649C77.7398 93.3941 77.3544 94.2863 77.2438 95.2316C77.2344 95.6018 77.3651 95.962 77.6099 96.2402C77.8548 96.5185 78.1957 96.6943 78.5646 96.7327C79.5141 96.8126 80.4629 96.5721 81.2593 96.0499C82.2303 95.5062 83.0856 94.7783 83.777 93.907C85.2602 92.0796 86.37 89.9796 87.0436 87.7258C87.5164 85.7919 87.5164 83.7728 87.0436 81.8389C86.6845 79.8159 85.7584 77.9359 84.3726 76.4171C82.7839 74.9746 80.7678 74.0881 78.6295 73.8916C76.5013 73.5997 74.3343 73.8011 72.2967 74.4803C71.4017 74.7512 70.5726 75.2042 69.8615 75.8107C69.3544 76.2817 68.7766 77.0587 68.9829 77.824C69.1893 78.5893 70.3096 78.9308 71.0703 78.8307C72.196 78.6201 73.2272 78.0621 74.0185 77.2354C74.9003 76.3686 75.6494 75.3768 76.2414 74.2919C76.6813 73.5122 76.9109 72.6319 76.9077 71.737C76.8311 68.0047 72.6977 65.5911 69.4605 64.9082C68.5867 64.7259 67.6916 64.6665 66.8013 64.7316C66.5005 64.7316 66.6833 65.2261 66.9251 65.2084C68.6671 65.1294 70.3982 65.5198 71.937 66.3387C73.4552 67.0354 74.7303 68.169 75.5987 69.5942C75.9857 70.2968 76.1767 71.0902 76.1518 71.8917C76.127 72.6932 75.8871 73.4733 75.4572 74.1506C74.8798 75.1546 74.161 76.0705 73.3227 76.8704C72.621 77.5062 71.5538 78.242 70.5691 78.1714C70.4065 78.171 70.2473 78.125 70.1097 78.0386C69.972 77.9522 69.8615 77.8289 69.7907 77.6828C69.761 77.4895 69.777 77.2919 69.8374 77.1059C69.8978 76.9198 70.001 76.7505 70.1386 76.6113C70.6593 76.0515 71.3033 75.6202 72.0196 75.3516C73.7885 74.6174 75.704 74.303 77.6153 74.4332C79.585 74.4688 81.5005 75.0831 83.1225 76.1993C84.5356 77.3706 85.5391 78.9601 85.9882 80.7381C86.5571 82.5443 86.734 84.4508 86.5071 86.3306C86.1569 88.2222 85.429 90.024 84.3667 91.6288C83.2758 93.4302 81.9079 95.1609 79.8559 95.8674C79.3488 96.0499 78.2875 96.3148 78.087 95.5789C77.8865 94.843 78.4644 93.9365 78.8358 93.3654C79.6573 92.0747 80.8549 91.066 82.2676 90.475C83.6308 89.9295 85.1023 89.7078 86.566 89.8274C89.3432 90.0335 92.1617 91.4816 93.1287 94.2367C93.6138 95.8832 93.6666 97.6266 93.2821 99.2994C92.9352 101.133 92.275 102.893 91.3303 104.503C89.2984 107.924 86.2211 110.605 82.5506 112.151C81.6779 112.527 80.7817 112.845 79.8677 113.139C79.7734 113.175 79.8146 113.41 79.9208 113.393Z" fill="#E0E0E0"/>
<path d="M61.1753 62.2833C58.8167 62.1125 55.5678 63.9669 56.7235 65.3209C57.8792 66.6749 60.9453 64.485 60.9453 64.485C60.9453 64.485 60.6564 67.2224 61.6588 67.5344C62.6612 67.8464 64.0174 65.2326 63.015 63.5607C63.4984 63.751 64.0221 63.8162 64.5375 63.7503C65.053 63.6845 65.5433 63.4897 65.9632 63.184C67.3901 62.1361 65.8806 61.1471 63.8699 61.3237C63.8699 61.3237 65.3087 56.6142 62.4017 57.5149C60.9453 57.9564 60.4323 59.6577 61.1753 62.2833Z" fill="#3C81FC"/>
<path opacity="0.65" d="M61.1753 62.2833C58.8167 62.1125 55.5678 63.9669 56.7235 65.3209C57.8792 66.6749 60.9453 64.485 60.9453 64.485C60.9453 64.485 60.6564 67.2224 61.6588 67.5344C62.6612 67.8464 64.0174 65.2326 63.015 63.5607C63.4984 63.751 64.0221 63.8162 64.5375 63.7503C65.053 63.6845 65.5433 63.4897 65.9632 63.184C67.3901 62.1361 65.8806 61.1471 63.8699 61.3237C63.8699 61.3237 65.3087 56.6142 62.4017 57.5149C60.9453 57.9564 60.4323 59.6577 61.1753 62.2833Z" fill="white"/>
<path d="M63.3696 63.2845C63.2391 63.1569 63.1013 63.037 62.9568 62.9254C62.7505 62.7665 62.5323 62.6134 62.3259 62.4604C62.125 62.3145 61.9142 62.1827 61.695 62.0659C61.5688 61.996 61.4389 61.9331 61.3058 61.8776C61.1221 61.7914 60.9177 61.7588 60.7162 61.7834C60.6634 61.7848 60.6119 61.8005 60.5673 61.8286C60.5226 61.8567 60.4863 61.8963 60.4622 61.9433C60.4381 61.9902 60.427 62.0427 60.4302 62.0954C60.4334 62.148 60.4507 62.1989 60.4803 62.2425C60.6424 62.4179 60.8448 62.5512 61.07 62.6311L61.3884 62.8018C61.6065 62.9313 61.8011 63.0785 61.978 63.2256C62.1549 63.3728 62.3908 63.5141 62.5677 63.6613C62.8718 63.9076 63.2118 64.1061 63.576 64.25C63.5923 64.2587 63.6105 64.2633 63.629 64.2633C63.6475 64.2633 63.6658 64.2587 63.6821 64.25C63.9828 64.0145 63.5406 63.4552 63.3696 63.2845Z" fill="#40527C"/>
</svg>
