<svg width="48" height="48" viewBox="0 0 48 48" fill="none" xmlns="http://www.w3.org/2000/svg">
<rect opacity="0.7" width="48" height="48" rx="4" fill="#E0F0FF"/>
<path d="M35.1987 13H12.8C12.3573 13 12 13.3671 12 13.825V17.125H36V13.825C36 13.7165 35.9793 13.6092 35.939 13.509C35.8987 13.4088 35.8396 13.3178 35.7652 13.2412C35.6908 13.1645 35.6024 13.1038 35.5052 13.0624C35.408 13.021 35.3038 12.9998 35.1987 13ZM13.3333 33.075C13.3333 34.1338 14.172 35 15.1987 35H32.7987C33.8253 35 34.6653 34.1324 34.6653 33.075V18.5H13.3333V33.075ZM20 21.25H28V24H20V21.25Z" fill="#196FC0"/>
</svg>
