<svg width="48" height="48" viewBox="0 0 48 48" fill="none" xmlns="http://www.w3.org/2000/svg">
<rect width="48" height="48" rx="4" fill="#E3FAED"/>
<path d="M25.8873 17.8823C25.053 17.8823 24.2375 18.1308 23.5439 18.5964C22.8503 19.062 22.3098 19.7237 21.9907 20.4978C21.6716 21.272 21.5884 22.1238 21.7514 22.9455C21.9145 23.7672 22.3166 24.5218 22.9068 25.114C23.497 25.7061 24.2489 26.1091 25.0672 26.2721C25.8855 26.435 26.7336 26.3505 27.5041 26.0293C28.2746 25.708 28.9329 25.1645 29.3958 24.4675C29.8587 23.7704 30.1053 22.9511 30.1044 22.1133C30.1021 20.9911 29.6569 19.9156 28.8664 19.1225C28.076 18.3295 27.0046 17.8835 25.8873 17.8823ZM20.0854 21.6784H18.7865C18.6717 21.6784 18.5615 21.7242 18.4803 21.8058C18.3991 21.8873 18.3535 21.9979 18.3535 22.1133C18.3535 22.2286 18.3991 22.3392 18.4803 22.4207C18.5615 22.5023 18.6717 22.5481 18.7865 22.5481H20.0854C20.2002 22.5481 20.3104 22.5023 20.3916 22.4207C20.4728 22.3392 20.5184 22.2286 20.5184 22.1133C20.5184 21.9979 20.4728 21.8873 20.3916 21.8058C20.3104 21.7242 20.2002 21.6784 20.0854 21.6784ZM32.9794 21.6784H31.6804C31.5656 21.6784 31.4555 21.7242 31.3743 21.8058C31.2931 21.8873 31.2475 21.9979 31.2475 22.1133C31.2475 22.2286 31.2931 22.3392 31.3743 22.4207C31.4555 22.5023 31.5656 22.5481 31.6804 22.5481H32.9794C33.0942 22.5481 33.2043 22.5023 33.2855 22.4207C33.3667 22.3392 33.4123 22.2286 33.4123 22.1133C33.4123 21.9979 33.3667 21.8873 33.2855 21.8058C33.2043 21.7242 33.0942 21.6784 32.9794 21.6784Z" fill="#12703B"/>
<path d="M24.242 24V23.5144C24.3963 23.4579 24.5149 23.3883 24.5977 23.3055C24.6843 23.2189 24.7276 23.1059 24.7276 22.9666V22.2212H24.2363V21.7864H24.7276V21.1935C24.7276 20.9412 24.7766 20.7229 24.8744 20.5384C24.9761 20.3539 25.1267 20.2128 25.3262 20.1149C25.5257 20.0132 25.778 19.9624 26.0829 19.9624C26.3163 19.9624 26.5328 19.9982 26.7323 20.0697C26.9356 20.1412 27.1126 20.2429 27.2632 20.3746L27.009 20.8998C26.8735 20.7756 26.7323 20.6852 26.5855 20.6288C26.4387 20.5723 26.2824 20.544 26.1168 20.544C25.8909 20.544 25.7234 20.5968 25.6142 20.7022C25.5088 20.8076 25.4561 20.9638 25.4561 21.1709V21.7864H26.4104V22.2212H25.4617V22.7972C25.4617 22.9666 25.426 23.104 25.3544 23.2095C25.2867 23.3111 25.1888 23.3864 25.0608 23.4353V23.4071H27.2067V24H24.242Z" fill="#F8F8F8"/>
<path d="M36.2144 14.1177H15.5555C15.0539 14.1188 14.5729 14.3189 14.2166 14.6748C13.8603 15.0306 13.6574 15.5136 13.6518 16.0191C13.1543 16.0247 12.6787 16.2264 12.3269 16.581C11.9751 16.9356 11.775 17.4148 11.7694 17.9163C11.2679 17.9219 10.7887 18.1264 10.4356 18.4855C10.0825 18.8446 9.88391 19.3294 9.88281 19.835V31.9594C9.88281 32.4686 10.0832 32.9571 10.4401 33.3176C10.797 33.6781 11.2813 33.8812 11.7866 33.8824H32.4497C32.9505 33.8801 33.4304 33.6795 33.7858 33.3238C34.1412 32.968 34.3435 32.4857 34.3491 31.9809C34.8474 31.9753 35.3236 31.773 35.6755 31.4175C36.0274 31.062 36.227 30.5816 36.2315 30.0795C36.7334 30.0749 37.2132 29.8708 37.5666 29.5115C37.9199 29.1521 38.1181 28.6667 38.1181 28.1608V16.0364C38.117 15.5279 37.916 15.0405 37.5593 14.6809C37.2025 14.3213 36.7189 14.1188 36.2144 14.1177ZM34.332 31.1186H13.6689C13.3909 31.1186 13.1243 31.0073 12.9278 30.8092C12.7312 30.6111 12.6208 30.3424 12.6208 30.0622V17.9378C12.6207 17.6606 12.7288 17.3945 12.9217 17.1969C13.1146 16.9993 13.3768 16.886 13.6518 16.8815V28.1608C13.6518 28.6697 13.8524 29.1577 14.2094 29.5175C14.3862 29.6957 14.596 29.837 14.827 29.9334C15.058 30.0299 15.3055 30.0795 15.5555 30.0795H35.3759C35.3725 30.3563 35.261 30.6205 35.0656 30.8151C34.8702 31.0096 34.6066 31.1186 34.332 31.1186ZM36.2743 25.4315C36.2743 25.5459 36.2292 25.6555 36.149 25.7364C36.0687 25.8172 35.9599 25.8627 35.8464 25.8627C35.3393 25.8627 34.8529 26.0657 34.4942 26.4272C34.1356 26.7886 33.9341 27.2788 33.9341 27.79C33.9341 27.9043 33.8891 28.014 33.8088 28.0949C33.7286 28.1757 33.6198 28.2212 33.5063 28.2212H18.2636C18.1501 28.2212 18.0413 28.1757 17.9611 28.0949C17.8808 28.014 17.8358 27.9043 17.8358 27.79C17.8358 27.2788 17.6343 26.7886 17.2757 26.4272C16.917 26.0657 16.4306 25.8627 15.9235 25.8627C15.81 25.8627 15.7012 25.8172 15.6209 25.7364C15.5407 25.6555 15.4956 25.5459 15.4956 25.4315V18.77C15.4956 18.6556 15.5407 18.5459 15.6209 18.4651C15.7012 18.3842 15.81 18.3388 15.9235 18.3388C16.4306 18.3388 16.917 18.1357 17.2757 17.7743C17.6343 17.4129 17.8358 16.9226 17.8358 16.4115C17.8358 16.2971 17.8808 16.1875 17.9611 16.1066C18.0413 16.0257 18.1501 15.9803 18.2636 15.9803H33.5063C33.6198 15.9803 33.7286 16.0257 33.8088 16.1066C33.8891 16.1875 33.9341 16.2971 33.9341 16.4115C33.9341 16.9226 34.1356 17.4129 34.4942 17.7743C34.8529 18.1357 35.3393 18.3388 35.8464 18.3388C35.9599 18.3388 36.0687 18.3842 36.149 18.4651C36.2292 18.5459 36.2743 18.6556 36.2743 18.77V25.4315Z" fill="#12703B"/>
</svg>
