<svg width="48" height="48" viewBox="0 0 48 48" fill="none" xmlns="http://www.w3.org/2000/svg">
<rect width="48" height="48" rx="4" fill="#FFF1D8"/>
<path d="M29.334 11V15" stroke="#EEA23A" stroke-width="1.7" stroke-linecap="round" stroke-linejoin="round"/>
<path d="M18.668 11V15" stroke="#EEA23A" stroke-width="1.7" stroke-linecap="round" stroke-linejoin="round"/>
<path fill-rule="evenodd" clip-rule="evenodd" d="M29.0238 13.3335H18.9884C15.5079 13.3335 13.334 15.3465 13.334 19.0467V30.1822C13.334 33.9406 15.5079 36.0002 18.9884 36.0002H29.0128C32.5043 36.0002 34.6673 33.9755 34.6673 30.2753V19.0467C34.6782 15.3465 32.5152 13.3335 29.0238 13.3335Z" fill="#EEA23A" stroke="#EEA23A" stroke-width="1.7" stroke-linecap="round" stroke-linejoin="round"/>
<path d="M13.332 20.334H34.6654" stroke="#FFF1D8" stroke-width="0.5" stroke-linejoin="round"/>
<path d="M20.516 32V30.968C20.844 30.848 21.096 30.7 21.272 30.524C21.456 30.34 21.548 30.1 21.548 29.804V28.22H20.504V27.296H21.548V26.036C21.548 25.5 21.652 25.036 21.86 24.644C22.076 24.252 22.396 23.952 22.82 23.744C23.244 23.528 23.78 23.42 24.428 23.42C24.924 23.42 25.384 23.496 25.808 23.648C26.24 23.8 26.616 24.016 26.936 24.296L26.396 25.412C26.108 25.148 25.808 24.956 25.496 24.836C25.184 24.716 24.852 24.656 24.5 24.656C24.02 24.656 23.664 24.768 23.432 24.992C23.208 25.216 23.096 25.548 23.096 25.988V27.296H25.124V28.22H23.108V29.444C23.108 29.804 23.032 30.096 22.88 30.32C22.736 30.536 22.528 30.696 22.256 30.8V30.74H26.816V32H20.516Z" fill="#FFF1D8"/>
</svg>
