<svg width="48" height="48" viewBox="0 0 48 48" fill="none" xmlns="http://www.w3.org/2000/svg">
<rect width="48" height="48" rx="4" fill="#FFEEE6"/>
<path fill-rule="evenodd" clip-rule="evenodd" d="M15.646 28.7355C15.3393 28.6915 15.0133 28.6668 14.6667 28.6668C12.1133 28.6668 10.6873 30.0142 10.1407 30.6855C10.052 30.8008 10.0047 30.9422 10.0047 31.0882C10.0047 31.0922 10.0047 31.0962 10.004 31.0995C10 31.3462 10 31.6728 10 32.0002C10 32.3682 10.2987 32.6668 10.6667 32.6668H15.448C15.3727 32.4548 15.3333 32.2295 15.3333 32.0002C15.3333 31.2415 15.3333 30.3375 15.336 29.8035C15.336 29.4235 15.4447 29.0535 15.646 28.7355ZM30.6667 32.6668H17.3333C17.1567 32.6668 16.9867 32.5968 16.862 32.4715C16.7367 32.3468 16.6667 32.1768 16.6667 32.0002C16.6667 31.2435 16.6667 30.3435 16.6693 29.8075C16.6693 29.8062 16.6693 29.8048 16.6693 29.8035C16.6693 29.6502 16.7227 29.5022 16.8193 29.3835C17.6467 28.4388 20.1467 26.0002 24 26.0002C28.3613 26.0002 30.5513 28.4342 31.2213 29.3522C31.2953 29.4648 31.3333 29.5922 31.3333 29.7222V32.0002C31.3333 32.1768 31.2633 32.3468 31.138 32.4715C31.0133 32.5968 30.8433 32.6668 30.6667 32.6668ZM32.552 32.6668H37.3333C37.7013 32.6668 38 32.3682 38 32.0002V31.0875C38 30.9402 37.9513 30.7975 37.862 30.6808C37.3127 30.0142 35.886 28.6668 33.3333 28.6668C33.0047 28.6668 32.6947 28.6888 32.4027 28.7288C32.5753 29.0308 32.6667 29.3735 32.6667 29.7235V32.0002C32.6667 32.2295 32.6273 32.4548 32.552 32.6668ZM14.6667 20.6668C12.8267 20.6668 11.3333 22.1602 11.3333 24.0002C11.3333 25.8402 12.8267 27.3335 14.6667 27.3335C16.5067 27.3335 18 25.8402 18 24.0002C18 22.1602 16.5067 20.6668 14.6667 20.6668ZM33.3333 20.6668C31.4933 20.6668 30 22.1602 30 24.0002C30 25.8402 31.4933 27.3335 33.3333 27.3335C35.1733 27.3335 36.6667 25.8402 36.6667 24.0002C36.6667 22.1602 35.1733 20.6668 33.3333 20.6668ZM24 15.3335C21.4247 15.3335 19.3333 17.4248 19.3333 20.0002C19.3333 22.5755 21.4247 24.6668 24 24.6668C26.5753 24.6668 28.6667 22.5755 28.6667 20.0002C28.6667 17.4248 26.5753 15.3335 24 15.3335Z" fill="#EC6626"/>
</svg>
