<svg width="41" height="41" viewBox="0 0 41 41" fill="none" xmlns="http://www.w3.org/2000/svg">
<rect width="41" height="41" rx="4" fill="#0A1122"/>
<path d="M14.5404 18.0159L9.67711 13.4583C8.76194 12.6006 8.744 11.1538 9.63762 10.2738C10.4868 9.43745 11.8464 9.42593 12.7096 10.2477L18.8971 16.1383C19.247 16.4715 19.4451 16.9335 19.4451 17.4166V22.4666C19.4451 23.596 18.9821 24.6761 18.1641 25.4548L12.5031 30.8442C11.6904 31.6179 10.4137 31.6179 9.60098 30.8442C8.7298 30.0149 8.7298 28.6253 9.60098 27.7959L13.9971 23.6108C14.6222 23.0156 14.976 22.1902 14.976 21.327V19.0212C14.976 18.6403 14.8183 18.2763 14.5404 18.0159Z" fill="url(#paint0_linear_220_21139)"/>
<path d="M14.5404 18.0159L9.67711 13.4583C8.76194 12.6006 8.744 11.1538 9.63762 10.2738C10.4868 9.43745 11.8464 9.42593 12.7096 10.2477L18.8971 16.1383C19.247 16.4715 19.4451 16.9335 19.4451 17.4166V22.4666C19.4451 23.596 18.9821 24.6761 18.1641 25.4548L12.5031 30.8442C11.6904 31.6179 10.4137 31.6179 9.60098 30.8442C8.7298 30.0149 8.7298 28.6253 9.60098 27.7959L13.9971 23.6108C14.6222 23.0156 14.976 22.1902 14.976 21.327V19.0212C14.976 18.6403 14.8183 18.2763 14.5404 18.0159Z" fill="url(#paint1_linear_220_21139)"/>
<path d="M26.2033 22.9832L31.0665 27.5408C31.9817 28.3984 31.9997 29.8452 31.106 30.7253C30.2569 31.5616 28.8972 31.5731 28.034 30.7513L21.8466 24.8607C21.4966 24.5276 21.2986 24.0655 21.2986 23.5824V18.5324C21.2986 17.403 21.7616 16.3229 22.5796 15.5442L28.2406 10.1548C29.0533 9.38111 30.33 9.38111 31.1427 10.1548C32.0138 10.9842 32.0139 12.3737 31.1427 13.2031L26.7466 17.3883C26.1214 17.9834 25.7676 18.8088 25.7676 19.672V21.9778C25.7676 22.3588 25.9253 22.7227 26.2033 22.9832Z" fill="url(#paint2_linear_220_21139)"/>
<path d="M26.2033 22.9832L31.0665 27.5408C31.9817 28.3984 31.9997 29.8452 31.106 30.7253C30.2569 31.5616 28.8972 31.5731 28.034 30.7513L21.8466 24.8607C21.4966 24.5276 21.2986 24.0655 21.2986 23.5824V18.5324C21.2986 17.403 21.7616 16.3229 22.5796 15.5442L28.2406 10.1548C29.0533 9.38111 30.33 9.38111 31.1427 10.1548C32.0138 10.9842 32.0139 12.3737 31.1427 13.2031L26.7466 17.3883C26.1214 17.9834 25.7676 18.8088 25.7676 19.672V21.9778C25.7676 22.3588 25.9253 22.7227 26.2033 22.9832Z" fill="url(#paint3_linear_220_21139)"/>
<defs>
<linearGradient id="paint0_linear_220_21139" x1="10.943" y1="10.33" x2="17.9871" y2="44.3034" gradientUnits="userSpaceOnUse">
<stop offset="0.130208" stop-color="#3C81FC"/>
<stop offset="1" stop-color="#002362"/>
</linearGradient>
<linearGradient id="paint1_linear_220_21139" x1="10.943" y1="10.33" x2="17.9871" y2="44.3034" gradientUnits="userSpaceOnUse">
<stop offset="0.130208" stop-color="#3C81FC"/>
<stop offset="1" stop-color="#002362"/>
</linearGradient>
<linearGradient id="paint2_linear_220_21139" x1="29.8006" y1="30.669" x2="22.7565" y2="-3.30437" gradientUnits="userSpaceOnUse">
<stop offset="0.130208" stop-color="#3C81FC"/>
<stop offset="1" stop-color="#002362"/>
</linearGradient>
<linearGradient id="paint3_linear_220_21139" x1="29.8006" y1="30.669" x2="22.7565" y2="-3.30437" gradientUnits="userSpaceOnUse">
<stop offset="0.130208" stop-color="#3C81FC"/>
<stop offset="1" stop-color="#002362"/>
</linearGradient>
</defs>
</svg>